<?xml version="1.0" encoding="UTF-8"?>
<svg width="14px" height="12px" viewBox="0 0 14 12" version="1.1" xmlns="http://www.w3.org/2000/svg" xmlns:xlink="http://www.w3.org/1999/xlink">
    <!-- Generator: Sketch 59.1 (86144) - https://sketch.com -->
    <title>yuque-fill</title>
    <desc>Created with Sketch.</desc>
    <g id="交互框架" stroke="none" stroke-width="1" fill="none" fill-rule="evenodd">
        <g id="首页" transform="translate(-977.000000, -3169.000000)" fill-rule="nonzero">
            <g id="yuque-fill" transform="translate(976.000000, 3167.000000)">
                <rect id="矩形" fill="#000000" opacity="0" x="0" y="0" width="16" height="16"></rect>
                <path d="M13.3853831,5.71419008 C13.2306956,5.07954575 13.5400706,4.06798069 14.5322581,3.71038921 L13.4713206,3.65240141 C13.4713206,3.65240141 13.0697581,2.20270625 11.2275706,2.07384446 C9.38538307,1.94337189 8.18069557,2.02552128 8.18069557,2.02552128 C8.18069557,2.02552128 9.54632057,2.92111074 8.99944557,4.51738619 C8.59944557,5.3630417 7.97132057,6.0572846 7.29944557,6.84817385 C7.27913307,6.86911389 7.26038307,6.89005393 7.24475807,6.90777243 C5.02288307,9.48984058 1.53225807,13.5973102 1.53225807,13.5973102 C5.37444557,14.6346476 7.94944557,13.4958315 9.47288307,12.1298965 C9.79319557,12.126675 10.0338206,12.1250642 10.1963206,12.1250642 C12.3181956,12.1250642 14.1119456,10.2307959 14.0385081,8.12390559 C13.9885081,6.6758212 13.5400706,6.34883441 13.3853831,5.71419008 Z" id="路径" fill="#CED4D9"></path>
            </g>
        </g>
    </g>
</svg>